<?xml version="1.0" encoding="iso-8859-1"?>
<!-- Generator: Adobe Illustrator 18.1.1, SVG Export Plug-In . SVG Version: 6.00 Build 0)  -->
<svg version="1.1" id="Capa_1" xmlns="http://www.w3.org/2000/svg" xmlns:xlink="http://www.w3.org/1999/xlink" x="0px" y="0px"
	 viewBox="0 0 15.975 15.975" style="enable-background:new 0 0 15.975 15.975;" xml:space="preserve">
<g>
	<g>
		<path style="fill:#030104;" d="M11.021,6.958V4.155c0-0.569-0.462-1.03-1.03-1.03H1.306c-0.569,0-1.03,0.461-1.03,1.03v2.803
			c0,0.569,0.461,1.03,1.03,1.03H9.99C10.559,7.988,11.021,7.527,11.021,6.958z M3.198,6.397c0.222,0,0.395-0.037,0.537-0.093
			l0.111,0.692C3.679,7.07,3.365,7.132,3.006,7.132c-0.976,0-1.6-0.593-1.6-1.544c0-0.883,0.605-1.606,1.729-1.606
			c0.247,0,0.519,0.043,0.717,0.118L3.704,4.797c-0.111-0.05-0.278-0.093-0.525-0.093c-0.494,0-0.815,0.352-0.809,0.846
			C2.37,6.106,2.741,6.397,3.198,6.397z M5.169,7.132c-0.395,0-0.747-0.086-0.976-0.21L4.36,6.249
			c0.173,0.104,0.531,0.229,0.809,0.229c0.284,0,0.402-0.099,0.402-0.254c0-0.154-0.093-0.228-0.445-0.345
			c-0.623-0.21-0.864-0.55-0.858-0.909c0-0.562,0.481-0.988,1.229-0.988c0.353,0,0.667,0.081,0.853,0.173L6.183,4.804
			C6.046,4.729,5.787,4.631,5.528,4.631c-0.229,0-0.358,0.093-0.358,0.247c0,0.142,0.118,0.216,0.488,0.346
			c0.575,0.197,0.815,0.488,0.821,0.932C6.479,6.718,6.034,7.132,5.169,7.132z M8.766,7.07H7.827l-1.1-3.021h1.019l0.408,1.402
			c0.074,0.253,0.13,0.495,0.173,0.735h0.019c0.05-0.247,0.099-0.476,0.167-0.735l0.389-1.402H9.89L8.766,7.07z"/>
		<path style="fill:#030104;" d="M15.27,0H4.058C3.822,0,3.629,0.192,3.629,0.429v2.05h1.288V1.075h9.43v10.089l-2.558-0.002
			c-0.127,0-0.247,0.051-0.337,0.141c-0.089,0.088-0.139,0.209-0.139,0.336l0.009,3.201H4.917V8.615H3.629v6.932
			c0,0.236,0.192,0.428,0.429,0.428h8.362c0.123,0,0.238-0.053,0.32-0.143l2.85-3.191c0.07-0.078,0.108-0.18,0.108-0.285V0.429
			C15.699,0.192,15.506,0,15.27,0z"/>
	</g>
</g>
<g>
</g>
<g>
</g>
<g>
</g>
<g>
</g>
<g>
</g>
<g>
</g>
<g>
</g>
<g>
</g>
<g>
</g>
<g>
</g>
<g>
</g>
<g>
</g>
<g>
</g>
<g>
</g>
<g>
</g>
</svg>
